<?xml version="1.0" encoding="UTF-8"?>
<svg width="196px" height="104px" viewBox="0 0 196 104" version="1.1" xmlns="http://www.w3.org/2000/svg" xmlns:xlink="http://www.w3.org/1999/xlink">
    <title>Group Copy</title>
    <g id="Page-1" stroke="none" stroke-width="1" fill="none" fill-rule="evenodd">
        <g id="Group-Copy" fill-rule="nonzero">
            <g id="Asset-1">
                <path d="M47.13,44 L47.13,60.15 L51,60.15 L51,51.15 C51,48.6033333 52.1566667,47.33 54.47,47.33 L54.47,43.63 L54.15,43.63 C53.4582127,43.5944635 52.7690539,43.7391868 52.15,44.05 C51.5368078,44.4384629 51.0203614,44.9617498 50.64,45.58 L50.64,44 L47.13,44 Z" id="Path" fill="#FAFAFA" opacity="0.8"></path>
                <path d="M81.3,50.32 C81.57,50.4 81.82,50.49 82.06,50.58 C83.3005141,50.1529145 84.4214504,49.436475 85.33,48.49 L81.56,48.49 C81.5322438,48.1072598 81.3507614,47.7520479 81.0568886,47.5052701 C80.7630158,47.2584923 80.3817748,47.1411608 80,47.18 C79.6154146,47.1746426 79.2420812,47.3097537 78.95,47.56 C78.6536767,47.8044006 78.4935433,48.176804 78.52,48.56 C78.4932386,48.8902619 78.6318052,49.2123355 78.89,49.42 C79.2932642,49.694619 79.7443632,49.8913388 80.22,50 L81.3,50.32 Z" id="Path" fill="#F62459"></path>
                <path d="M70.24,46.07 C68.6734114,44.4471866 66.4945461,43.5611147 64.24,43.63 C61.9797446,43.6193004 59.8089705,44.5124508 58.2107107,46.1107107 C56.6124508,47.7089705 55.7193004,49.8797446 55.73,52.14 C55.6869868,54.4098006 56.6103571,56.5909905 58.27,58.14 C59.9336565,59.7437706 62.1698516,60.6152025 64.48,60.56 C66.1976271,60.5739348 67.8788053,60.0646982 69.3,59.1 C70.6641657,58.2311102 71.6853562,56.9166366 72.19,55.38 L68,55.38 C67.5853079,55.9053119 67.0593692,56.3322103 66.46,56.63 C65.8242868,56.882223 65.1435877,57.0013453 64.46,56.98 C63.4164822,57.0141514 62.3895207,56.7127224 61.53,56.12 C60.7524216,55.5607767 60.207817,54.7349711 60,53.8 L72.45,53.8 C72.5514405,53.3098644 72.6017101,52.8105199 72.6,52.31 C72.6850167,49.9971795 71.8342562,47.7477109 70.24,46.07 Z M59.84,50.38 C60.3339675,48.3316023 62.2632264,46.9614869 64.36,47.17 C66.8,47.17 68.29,48.24 68.79,50.38 L59.84,50.38 Z" id="Shape" fill="#FAFAFA" opacity="0.8"></path>
                <circle id="Oval" fill="#F62459" cx="51.22" cy="22.32" r="8.22"></circle>
                <path d="M15.2363931,58.5343366 C14.1333297,61.9210474 15.336932,65.6328455 18.217504,67.727807 C21.0980761,69.8227685 25.0001398,69.824182 27.882229,67.7313081 C30.7643181,65.6384342 31.9706094,61.9275091 30.87,58.54 C29.7758383,55.1519247 26.6203701,52.8570387 23.06,52.8599927 C19.498182,52.8566528 16.3394565,55.1476257 15.2363931,58.5343366 Z" id="Path" fill="#F62459"></path>
                <path d="M40.0738773,70.5375145 C37.6037575,67.6430625 33.4714346,66.8193635 30.0802922,68.5454855 C26.6891497,70.2716076 24.9234794,74.0974383 25.8102056,77.7978519 C26.6969317,81.4982656 30.004827,84.1083233 33.81,84.1100016 C36.4446414,84.1111609 38.9205877,82.850882 40.47,80.72 C42.707793,77.6423992 42.5439972,73.4319665 40.0738773,70.5375145 Z" id="Path" fill="#F62459"></path>
                <path d="M25.6,35 C24.7773588,34.7279942 23.9164441,34.5895726 23.05,34.589999 C19.0501368,34.644065 15.6699407,37.5697072 15.0427582,41.5204629 C14.4155757,45.4712186 16.7235302,49.2998546 20.51,50.589999 C21.3326412,50.8620058 22.1935559,51.0004274 23.06,51.000001 C27.0598632,50.945935 30.4400593,48.0202928 31.0672418,44.0695371 C31.6944243,40.1187814 29.3864698,36.2901454 25.6,35 Z" id="Path" fill="#F62459"></path>
                <path d="M33.83,36.1900949 C37.6295962,36.1859699 40.9312897,33.5783136 41.8155711,29.8830473 C42.6998526,26.1877809 40.9362535,22.3679943 37.5500795,20.6444013 C34.1639056,18.9208082 30.0376884,19.7426253 27.5702917,22.6320717 C25.102895,25.5215182 24.9373915,29.7255234 27.17,32.8 C28.7116992,34.9399 31.192606,36.2027039 33.83,36.1900949 Z" id="Path" fill="#F62459"></path>
                <circle id="Oval" fill="#F62459" cx="51.22" cy="81.54" r="8.22"></circle>
                <path d="M62,23.14 C59.762207,26.2176008 59.9260028,30.4280335 62.3961227,33.3224855 C64.8662425,36.2169375 68.9985654,37.0406365 72.3897078,35.3145145 C75.7808503,33.5883924 77.5465206,29.7625617 76.6597944,26.0621481 C75.7730683,22.3617344 72.465173,19.7516767 68.66,19.7499992 C66.0253586,19.7488391 63.5494123,21.009118 62,23.14 Z" id="Path" fill="#F62459"></path>
                <path d="M68.62,67.66 C64.8180969,67.6809189 61.5266282,70.3063933 60.6610774,74.0085179 C59.7955265,77.7106424 61.581775,81.5232791 64.9803083,83.2276487 C68.3788417,84.9320183 72.5027496,84.0833339 74.9521074,81.1754909 C77.4014652,78.2676479 77.5370675,74.0595017 75.28,71 C73.7275061,68.878995 71.2483663,67.6357026 68.62,67.66 Z" id="Path" fill="#F62459"></path>
                <circle id="Oval" fill="#89C4F4" opacity="0.8" cx="37.11" cy="8.76" r="5.81"></circle>
                <circle id="Oval" fill="#89C4F4" opacity="0.6" cx="51.27" cy="2.91" r="2.91"></circle>
                <path d="M24.15,14.6 C25.1660829,13.8579305 25.590164,12.5468817 25.201166,11.3503149 C24.812168,10.153748 23.6982068,9.34270917 22.44,9.34 C21.8265801,9.3404514 21.2286644,9.53276347 20.73,9.89 C19.7139171,10.6320695 19.289836,11.9431183 19.678834,13.1396851 C20.067832,14.336252 21.1817932,15.1472908 22.44,15.15 C23.0534199,15.1495486 23.6513356,14.9572365 24.15,14.6 Z" id="Path" fill="#89C4F4" opacity="0.6"></path>
                <path d="M3.7,64.27 C2.3522264,64.7200639 1.52656725,66.0776747 1.74690824,67.48142 C1.96724922,68.8851654 3.16915113,69.924517 4.59,69.94 C4.89202258,69.9384 5.192072,69.8912013 5.48,69.8 C6.8277736,69.3499361 7.65343275,67.9923253 7.43309176,66.58858 C7.21275078,65.1848346 6.01084887,64.145483 4.59,64.13 C4.28797742,64.1316 3.987928,64.1787987 3.7,64.27 Z" id="Path" fill="#89C4F4" opacity="0.6"></path>
                <path d="M24.08,89.21 C23.5832114,88.849053 22.9840588,88.6563431 22.37,88.6599489 C21.1117932,88.6627092 19.997832,89.473748 19.608834,90.6703149 C19.219836,91.8668817 19.6439171,93.1779305 20.66,93.92 C21.1567886,94.280947 21.7559412,94.4736569 22.37,94.4700511 C23.6282068,94.4672908 24.742168,93.656252 25.131166,92.4596851 C25.520164,91.2631183 25.0960829,89.9520695 24.08,89.21 Z" id="Path" fill="#89C4F4" opacity="0.6"></path>
                <path d="M3.71,39.5 C3.99690961,39.5954548 4.29764073,39.6427609 4.6,39.64 C5.99221634,39.5952481 7.15747697,38.5701795 7.37935413,37.1950288 C7.60123129,35.819878 6.81749354,34.4803433 5.51,34 C5.22309039,33.9045452 4.92235927,33.8572391 4.62,33.86 C3.19732118,33.8707448 1.990994,34.9085952 1.76795777,36.3137235 C1.54492155,37.7188517 2.37057608,39.0792389 3.72,39.53 L3.71,39.5 Z" id="Path" fill="#89C4F4" opacity="0.6"></path>
                <circle id="Oval" fill="#89C4F4" opacity="0.6" cx="51.17" cy="100.95" r="2.91"></circle>
                <path d="M20.0924387,26.6607781 C20.7215594,24.0493847 19.4785578,21.3471647 17.0862971,20.1255848 C14.6940365,18.9040049 11.776252,19.4815681 10.029771,21.5223946 C8.28329005,23.5632211 8.1634734,26.5352052 9.74,28.71 C10.8320083,30.216409 12.5794225,31.1087057 14.44,31.1100028 C17.1261059,31.1118686 19.463318,29.2721715 20.0924387,26.6607781 Z" id="Path" fill="#89C4F4" opacity="0.8"></path>
                <path d="M10.2185581,55.8049585 C11.7497423,54.0221708 12.0561437,51.4925307 10.9948723,49.3957331 C9.93360095,47.2989355 7.71368408,46.047964 5.37037736,46.2262078 C3.02707064,46.4044516 1.02191009,47.9768039 0.29,50.21 C-0.70914304,53.2585744 0.951709887,56.53999 4,57.54 C6.23298787,58.2725452 8.68737394,57.5877463 10.2185581,55.8049585 Z" id="Path" fill="#89C4F4" opacity="0.8"></path>
                <path d="M97.84,64.22 C96.4173212,64.2307448 95.210994,65.2685952 94.9879578,66.6737235 C94.7649215,68.0788517 95.5905761,69.4392389 96.94,69.89 C97.2269096,69.9854548 97.5276407,70.0327609 97.83,70.03 C99.2526788,70.0192552 100.459006,68.9814048 100.682042,67.5762765 C100.905078,66.1711483 100.079424,64.8107611 98.73,64.36 C98.4430904,64.2645452 98.1423593,64.2172391 97.84,64.22 Z" id="Path" fill="#89C4F4" opacity="0.6"></path>
                <path d="M98.75,39.59 C100.099424,39.1392389 100.925078,37.7788517 100.702042,36.3737235 C100.479006,34.9685952 99.2726788,33.9307448 97.85,33.92 C97.5479774,33.9216 97.247928,33.9687987 96.96,34.06 C95.6105761,34.5107611 94.7849215,35.8711483 95.0079578,37.2762765 C95.230994,38.6814048 96.4373212,39.7192552 97.86,39.73 C98.1620226,39.7284 98.462072,39.6812013 98.75,39.59 Z" id="Path" fill="#89C4F4" opacity="0.6"></path>
                <path d="M80.08,15.2 C81.3382068,15.1972908 82.452168,14.386252 82.841166,13.1896851 C83.230164,11.9931183 82.8060829,10.6820695 81.79,9.94 C81.2932114,9.57905301 80.6940588,9.3863431 80.08,9.39 C78.8217932,9.39270917 77.707832,10.203748 77.318834,11.4003149 C76.929836,12.5968817 77.3539171,13.9079305 78.37,14.65 C78.8667886,15.010947 79.4659412,15.2036569 80.08,15.2 Z" id="Path" fill="#89C4F4" opacity="0.6"></path>
                <path d="M78.29,89.26 C77.2739171,90.0020695 76.849836,91.3131183 77.238834,92.5096851 C77.627832,93.706252 78.7417932,94.5172908 80,94.52 C80.6067501,94.5262501 81.2005719,94.3446105 81.7,94 C82.7417221,93.2672127 83.1858658,91.9421357 82.7961941,90.729569 C82.4065224,89.5170023 81.2735915,88.6987357 80,88.71 C79.3865801,88.7104514 78.7886644,88.9027635 78.29,89.26 Z" id="Path" fill="#89C4F4" opacity="0.6"></path>
                <path d="M14.9804655,72.9024855 C12.6376689,72.7178859 10.4143803,73.9628093 9.34741409,76.0566946 C8.28044793,78.1505799 8.5799498,80.6810237 10.1062492,82.4679716 C11.6325485,84.2549195 14.0850314,84.9464213 16.32,84.22 C19.371091,83.2283184 21.0409178,79.9513391 20.05,76.9 C19.3241382,74.6648496 17.323262,73.087085 14.9804655,72.9024855 Z" id="Path" fill="#89C4F4" opacity="0.8"></path>
                <path d="M32.5701992,91.7700621 C30.6952542,94.3740301 31.2862225,98.0049034 33.8901692,99.8798779 C36.4941159,101.754852 40.1249959,101.163925 42,98.56 C42.9057203,97.3113092 43.2757147,95.7528198 43.027902,94.2302737 C42.7800893,92.7077275 41.9349596,91.3470141 40.68,90.45 C38.0760107,88.5750846 34.4451441,89.1660941 32.5701992,91.7700621 Z" id="Path" fill="#89C4F4" opacity="0.8"></path>
                <circle id="Oval" fill="#89C4F4" opacity="0.8" cx="65.33" cy="95.1" r="5.81"></circle>
                <path d="M61.76,13.41 C64.3548721,15.2964029 67.9875815,14.722645 69.8747607,12.1283375 C71.7619399,9.53402991 71.189269,5.90114899 68.5955262,4.01319366 C66.0017834,2.12523833 62.3687313,2.69682221 60.48,5.29 C59.5669927,6.53445512 59.1886457,8.09193681 59.4289811,9.61656455 C59.6693165,11.1411923 60.5084394,12.5067575 61.76,13.41 Z" id="Path" fill="#89C4F4" opacity="0.8"></path>
                <path d="M79.2761433,34.5723636 C75.6829315,34.6160635 72.534591,36.9887259 71.5024641,40.4307885 C70.4703372,43.8728511 71.7936894,47.5863823 74.77,49.6 C74.7052454,49.2705602 74.6717633,48.9357389 74.67,48.6 C74.6484611,47.2645987 75.210903,45.9863215 76.21,45.1 C78.386497,43.2148605 81.6047824,43.1726258 83.83,45 C84.8135838,45.8772828 85.3620507,47.1424132 85.33,48.46 C87.4224077,46.2748023 88.1378219,43.1131328 87.19,40.24 C86.0744675,36.8240568 82.8693551,34.5286637 79.2761433,34.5723636 Z" id="Path" fill="#F62459"></path>
                <path d="M87.4595345,30.9975145 C89.8023311,31.1821141 92.0256197,29.9371907 93.0925859,27.8433054 C94.1595521,25.7494201 93.8600502,23.2189763 92.3337508,21.4320284 C90.8074515,19.6450805 88.3549686,18.9535787 86.12,19.68 C83.068909,20.6716816 81.3990822,23.9486609 82.39,27 C83.1158618,29.2351504 85.116738,30.812915 87.4595345,30.9975145 Z" id="Path" fill="#89C4F4" opacity="0.8"></path>
                <path d="M82.3475613,77.1992219 C81.7184406,79.8106153 82.9614422,82.5128353 85.3537029,83.7344152 C87.7459635,84.9559951 90.663748,84.3784319 92.410229,82.3376054 C94.1567099,80.2967789 94.2765266,77.3247948 92.7,75.15 C91.6079917,73.643591 89.8605775,72.7512943 88,72.7499972 C85.3138941,72.7481314 82.976682,74.5878285 82.3475613,77.1992219 Z" id="Path" fill="#89C4F4" opacity="0.8"></path>
                <path d="M76.83,68.9 C77.6526412,69.1720058 78.5135559,69.3104274 79.38,69.310001 C82.5616346,69.3093927 85.4571988,67.4727722 86.813784,64.5948432 C88.1703692,61.7169141 87.7443248,58.3145688 85.72,55.86 C85.5588517,57.0429786 84.9893562,58.1324483 84.11,58.94 C83.0073415,59.997651 81.5273722,60.5701939 80,60.53 C78.4970855,60.5995804 77.0251419,60.0874444 75.89,59.1 C74.7952895,58.0086392 74.152507,56.5445233 74.09,55 L78,55 C78.1266011,55.5570982 78.4032624,56.0689215 78.8,56.48 C79.1757991,56.8061202 79.6630301,56.9745015 80.16,56.95 C80.6154038,56.9654997 81.0605081,56.8123838 81.41,56.52 C81.736854,56.2367541 81.9202027,55.822386 81.91,55.39 C81.9375858,54.9600022 81.7503209,54.544274 81.41,54.28 C80.5959826,53.8187347 79.729869,53.4561755 78.83,53.2 L78.13,53 C74.4047735,53.6104121 71.5741467,56.6796292 71.2665331,60.4419807 C70.9589194,64.2043322 73.2534011,67.6925833 76.83,68.9 Z" id="Path" fill="#F62459"></path>
                <path d="M95.81,43.62 C93.5357198,43.5824652 91.3454616,44.4788085 89.75,46.1 C88.1298439,47.6758256 87.215829,49.8398823 87.215829,52.1 C87.215829,54.3601177 88.1298439,56.5241744 89.75,58.1 C93.1258558,61.3951771 98.5141442,61.3951771 101.89,58.1 C103.518336,56.552462 104.427938,54.3962352 104.4,52.15 C104.434978,49.8918076 103.533625,47.7198725 101.91,46.15 C100.308685,44.5072598 98.1039198,43.5928246 95.81,43.62 Z M99.15,55.55 C98.2921453,56.4843768 97.0784033,57.0113007 95.81,57 C94.5538157,57.0142224 93.3506631,56.4944314 92.5,55.57 C90.6636762,53.6210851 90.6636762,50.5789149 92.5,48.63 C93.3649384,47.7169301 94.5672977,47.1997262 95.825,47.1997262 C97.0827023,47.1997262 98.2850616,47.7169301 99.15,48.63 C100.986324,50.5789149 100.986324,53.6210851 99.15,55.57 L99.15,55.55 Z" id="Shape" fill="#89C4F4"></path>
                <path d="M81.87,50.57 C81.0458528,50.8174402 80.1904791,50.9454095 79.33,50.95 C77.6907231,50.9468709 76.0894483,50.4560453 74.73,49.54 C74.862001,50.2281767 75.1841781,50.8656024 75.66,51.38 C76.3582012,52.0949225 77.2047761,52.647927 78.14,53 C78.5536353,52.9370293 78.9716102,52.9069351 79.39,52.91 C80.2563214,52.9111061 81.1169947,53.0494889 81.94,53.32 C83.4302876,53.7980819 84.750156,54.6976764 85.74,55.91 C85.7789636,55.6350317 85.7990107,55.3577135 85.8,55.08 C85.8653065,54.0188514 85.5054818,52.9753595 84.8,52.18 C84.0004286,51.4384953 83.0430764,50.8880178 82,50.57 L81.87,50.57 Z" id="Path" fill="#F62459"></path>
            </g>
        </g>
    </g>
</svg>